{
  "accessors": [
    {
      "bufferView": 2,
      "componentType": 5126,
      "count": 1885,
      "max": [
        220.0,
        -9.899999618530273,
        69.56385040283203
      ],
      "min": [
        0.30000001192092896,
        -209.89999389648438,
        -69.56385040283203
      ],
      "type": "VEC3"
    },
    {
      "bufferView": 2,
      "byteOffset": 22620,
      "componentType": 5126,
      "count": 1885,
      "max": [
        0.9997785687446594,
        0.9999780654907227,
        0.9999736547470093
      ],
      "min": [
        -0.9999966025352478,
        -0.9999871253967285,
        -0.9999736547470093
      ],
      "type": "VEC3"
    },
    {
      "bufferView": 1,
      "componentType": 5126,
      "count": 1885,
      "max": [
        0.9998139142990112,
        0.9550083875656128
      ],
      "min": [
        0.001363382674753666,
        0.046086668968200684
      ],
      "type": "VEC2"
    },
    {
      "bufferView": 0,
      "componentType": 5125,
      "count": 11298,
      "type": "SCALAR"
    },
    {
      "bufferView": 2,
      "byteOffset": 45240,
      "componentType": 5126,
      "count": 2029,
      "max": [
        200.1999969482422,
        -1.600000023841858,
        63.873836517333984
      ],
      "min": [
        0.20000000298023224,
        -233.1999969482422,
        -63.873836517333984
      ],
      "type": "VEC3"
    },
    {
      "bufferView": 2,
      "byteOffset": 69588,
      "componentType": 5126,
      "count": 2029,
      "max": [
        0.9998205900192261,
        0.9999251365661621,
        0.9998008608818054
      ],
      "min": [
        -0.9999622106552124,
        -0.999984860420227,
        -0.9998008608818054
      ],
      "type": "VEC3"
    },
    {
      "bufferView": 1,
      "byteOffset": 15080,
      "componentType": 5126,
      "count": 2029,
      "max": [
        0.9981962442398071,
        0.9931467771530151
      ],
      "min": [
        0.0009971990948542953,
        0.0011411966988816857
      ],
      "type": "VEC2"
    },
    {
      "bufferView": 0,
      "byteOffset": 45192,
      "componentType": 5125,
      "count": 12150,
      "type": "SCALAR"
    },
    {
      "bufferView": 2,
      "byteOffset": 93936,
      "componentType": 5126,
      "count": 1926,
      "max": [
        203.3000030517578,
        -3.200000047683716,
        72.17476654052734
      ],
      "min": [
        3.5,
        -203.3000030517578,
        -72.17476654052734
      ],
      "type": "VEC3"
    },
    {
      "bufferView": 2,
      "byteOffset": 117048,
      "componentType": 5126,
      "count": 1926,
      "max": [
        0.9999999403953552,
        0.9999925494194031,
        0.9999306201934814
      ],
      "min": [
        -0.9999998211860657,
        -0.9999997615814209,
        -0.9999306201934814
      ],
      "type": "VEC3"
    },
    {
      "bufferView": 1,
      "byteOffset": 31312,
      "componentType": 5126,
      "count": 1926,
      "max": [
        0.9833109378814697,
        0.9845224022865295
      ],
      "min": [
        0.016928618773818016,
        0.016689088195562363
      ],
      "type": "VEC2"
    },
    {
      "bufferView": 0,
      "byteOffset": 93792,
      "componentType": 5125,
      "count": 11544,
      "type": "SCALAR"
    },
    {
      "bufferView": 2,
      "byteOffset": 140160,
      "componentType": 5126,
      "count": 1887,
      "max": [
        208.89999389648438,
        -4.599999904632568,
        53.88276672363281
      ],
      "min": [
        0.10000000149011612,
        -204.60000610351563,
        -53.88276672363281
      ],
      "type": "VEC3"
    },
    {
      "bufferView": 2,
      "byteOffset": 162804,
      "componentType": 5126,
      "count": 1887,
      "max": [
        0.9995602965354919,
        0.9952448010444641,
        0.9996744394302368
      ],
      "min": [
        -0.9998311400413513,
        -0.9989610314369202,
        -0.9996744394302368
      ],
      "type": "VEC3"
    },
    {
      "bufferView": 1,
      "byteOffset": 46720,
      "componentType": 5126,
      "count": 1887,
      "max": [
        0.9992384314537048,
        0.9779966473579407
      ],
      "min": [
        0.0004783333861269057,
        0.021329864859580994
      ],
      "type": "VEC2"
    },
    {
      "bufferView": 0,
      "byteOffset": 139968,
      "componentType": 5125,
      "count": 11310,
      "type": "SCALAR"
    },
    {
      "bufferView": 2,
      "byteOffset": 185448,
      "componentType": 5126,
      "count": 1888,
      "max": [
        202.0,
        -0.10000000149011612,
        67.55604553222656
      ],
      "min": [
        2.0,
        -204.1999969482422,
        -67.55604553222656
      ],
      "type": "VEC3"
    },
    {
      "bufferView": 2,
      "byteOffset": 208104,
      "componentType": 5126,
      "count": 1888,
      "max": [
        1.0,
        1.0,
        0.9998952150344849
      ],
      "min": [
        -0.9999996423721313,
        -0.999979555606842,
        -0.9998952150344849
      ],
      "type": "VEC3"
    },
    {
      "bufferView": 1,
      "byteOffset": 61816,
      "componentType": 5126,
      "count": 1888,
      "max": [
        0.9890398383140564,
        0.9995103478431702
      ],
      "min": [
        0.009792473167181015,
        0.00018847572209779173
      ],
      "type": "VEC2"
    },
    {
      "bufferView": 0,
      "byteOffset": 185208,
      "componentType": 5125,
      "count": 11316,
      "type": "SCALAR"
    },
    {
      "bufferView": 2,
      "byteOffset": 230760,
      "componentType": 5126,
      "count": 1860,
      "max": [
        200.10000610351563,
        -0.20000000298023224,
        70.77082824707031
      ],
      "min": [
        0.10000000149011612,
        -200.10000610351563,
        -70.77082824707031
      ],
      "type": "VEC3"
    },
    {
      "bufferView": 2,
      "byteOffset": 253080,
      "componentType": 5126,
      "count": 1860,
      "max": [
        0.9998498558998108,
        0.9999371767044067,
        0.9997648596763611
      ],
      "min": [
        -0.9993727803230286,
        -0.999999463558197,
        -0.9997648596763611
      ],
      "type": "VEC3"
    },
    {
      "bufferView": 1,
      "byteOffset": 76920,
      "componentType": 5126,
      "count": 1860,
      "max": [
        0.9988384246826172,
        0.999001681804657
      ],
      "min": [
        0.0004991696332581341,
        0.0011615970870479941
      ],
      "type": "VEC2"
    },
    {
      "bufferView": 0,
      "byteOffset": 230472,
      "componentType": 5125,
      "count": 11148,
      "type": "SCALAR"
    },
    {
      "bufferView": 2,
      "byteOffset": 275400,
      "componentType": 5126,
      "count": 1946,
      "max": [
        244.6999969482422,
        -22.399999618530273,
        68.77332305908203
      ],
      "min": [
        0.10000000149011612,
        -222.39999389648438,
        -68.77332305908203
      ],
      "type": "VEC3"
    },
    {
      "bufferView": 2,
      "byteOffset": 298752,
      "componentType": 5126,
      "count": 1946,
      "max": [
        0.9998151659965515,
        0.9999628067016602,
        0.9999874830245972
      ],
      "min": [
        -0.9998174905776978,
        -0.9929882884025574,
        -0.9999874830245972
      ],
      "type": "VEC3"
    },
    {
      "bufferView": 1,
      "byteOffset": 91800,
      "componentType": 5126,
      "count": 1946,
      "max": [
        0.9994174838066101,
        0.9085126519203186
      ],
      "min": [
        0.0004084256070200354,
        0.0916614681482315
      ],
      "type": "VEC2"
    },
    {
      "bufferView": 0,
      "byteOffset": 275064,
      "componentType": 5125,
      "count": 11664,
      "type": "SCALAR"
    },
    {
      "bufferView": 2,
      "byteOffset": 322104,
      "componentType": 5126,
      "count": 138,
      "max": [
        1.0,
        1.0273239612579346,
        1.0273239612579346
      ],
      "min": [
        -1.0,
        0.0,
        0.0
      ],
      "type": "VEC3"
    },
    {
      "bufferView": 2,
      "byteOffset": 323760,
      "componentType": 5126,
      "count": 138,
      "max": [
        0.0,
        1.0,
        1.0
      ],
      "min": [
        0.0,
        0.0,
        0.0
      ],
      "type": "VEC3"
    },
    {
      "bufferView": 1,
      "byteOffset": 107368,
      "componentType": 5126,
      "count": 138,
      "max": [
        20.0,
        20.0
      ],
      "min": [
        0.0,
        0.0
      ],
      "type": "VEC2"
    },
    {
      "bufferView": 0,
      "byteOffset": 321720,
      "componentType": 5125,
      "count": 660,
      "type": "SCALAR"
    },
    {
      "bufferView": 2,
      "byteOffset": 325416,
      "componentType": 5126,
      "count": 1624,
      "max": [
        200.10000610351563,
        -0.10000000149011612,
        24.462148666381836
      ],
      "min": [
        0.20000000298023224,
        -200.10000610351563,
        -24.462148666381836
      ],
      "type": "VEC3"
    },
    {
      "bufferView": 2,
      "byteOffset": 344904,
      "componentType": 5126,
      "count": 1624,
      "max": [
        0.9999766945838928,
        0.9993020296096802,
        0.9999439716339111
      ],
      "min": [
        -0.9979249835014343,
        -0.9999828934669495,
        -0.9999439716339111
      ],
      "type": "VEC3"
    },
    {
      "bufferView": 1,
      "byteOffset": 108472,
      "componentType": 5126,
      "count": 1624,
      "max": [
        0.9985459446907043,
        0.9995009899139404
      ],
      "min": [
        0.0009980469476431608,
        0.0014540711417794228
      ],
      "type": "VEC2"
    },
    {
      "bufferView": 0,
      "byteOffset": 324360,
      "componentType": 5125,
      "count": 9732,
      "type": "SCALAR"
    }
  ],
  "asset": {
    "extras": {
      "author": "pissang (https://sketchfab.com/YiChen)",
      "license": "CC-BY-4.0 (http://creativecommons.org/licenses/by/4.0/)",
      "source": "https://sketchfab.com/3d-models/3d-emoji-pack-3338a9cc180040f88d1e6a58039a441f",
      "title": "3D Emoji Pack"
    },
    "generator": "Sketchfab-15.22.0",
    "version": "2.0"
  },
  "bufferViews": [
    {
      "buffer": 0,
      "byteLength": 363288,
      "name": "floatBufferViews",
      "target": 34963
    },
    {
      "buffer": 0,
      "byteLength": 121464,
      "byteOffset": 363288,
      "byteStride": 8,
      "name": "floatBufferViews",
      "target": 34962
    },
    {
      "buffer": 0,
      "byteLength": 364392,
      "byteOffset": 484752,
      "byteStride": 12,
      "name": "floatBufferViews",
      "target": 34962
    }
  ],
  "buffers": [
    {
      "byteLength": 849144,
      "uri": "scene.bin"
    }
  ],
  "images": [
    {
      "uri": "textures/material_0_baseColor.png"
    },
    {
      "uri": "textures/material_1_baseColor.png"
    },
    {
      "uri": "textures/material_2_baseColor.png"
    },
    {
      "uri": "textures/material_3_baseColor.png"
    },
    {
      "uri": "textures/material_4_baseColor.png"
    },
    {
      "uri": "textures/material_5_baseColor.png"
    },
    {
      "uri": "textures/material_6_baseColor.png"
    },
    {
      "uri": "textures/material_7_baseColor.png"
    },
    {
      "uri": "textures/material_8_baseColor.png"
    }
  ],
  "materials": [
    {
      "name": "material_0",
      "pbrMetallicRoughness": {
        "baseColorTexture": {
          "index": 0
        },
        "metallicFactor": 0.0,
        "roughnessFactor": 0.0
      }
    },
    {
      "name": "material_1",
      "pbrMetallicRoughness": {
        "baseColorTexture": {
          "index": 1
        },
        "metallicFactor": 0.0,
        "roughnessFactor": 0.0
      }
    },
    {
      "name": "material_2",
      "pbrMetallicRoughness": {
        "baseColorTexture": {
          "index": 2
        },
        "metallicFactor": 0.0,
        "roughnessFactor": 0.0
      }
    },
    {
      "name": "material_3",
      "pbrMetallicRoughness": {
        "baseColorTexture": {
          "index": 3
        },
        "metallicFactor": 0.0,
        "roughnessFactor": 0.0
      }
    },
    {
      "name": "material_4",
      "pbrMetallicRoughness": {
        "baseColorTexture": {
          "index": 4
        },
        "metallicFactor": 0.0,
        "roughnessFactor": 0.0
      }
    },
    {
      "name": "material_5",
      "pbrMetallicRoughness": {
        "baseColorTexture": {
          "index": 5
        },
        "metallicFactor": 0.0,
        "roughnessFactor": 0.0
      }
    },
    {
      "name": "material_6",
      "pbrMetallicRoughness": {
        "baseColorTexture": {
          "index": 6
        },
        "metallicFactor": 0.0,
        "roughnessFactor": 0.0
      }
    },
    {
      "name": "material_7",
      "pbrMetallicRoughness": {
        "baseColorFactor": [
          0.45098,
          0.45098,
          0.45098,
          1.0
        ],
        "baseColorTexture": {
          "index": 7
        },
        "metallicFactor": 0.0
      }
    },
    {
      "name": "material_8",
      "pbrMetallicRoughness": {
        "baseColorTexture": {
          "index": 8
        },
        "metallicFactor": 0.0,
        "roughnessFactor": 0.0
      }
    }
  ],
  "meshes": [
    {
      "name": "Object_0",
      "primitives": [
        {
          "attributes": {
            "NORMAL": 1,
            "POSITION": 0,
            "TEXCOORD_0": 2
          },
          "indices": 3,
          "material": 0,
          "mode": 4
        }
      ]
    },
    {
      "name": "Object_1",
      "primitives": [
        {
          "attributes": {
            "NORMAL": 5,
            "POSITION": 4,
            "TEXCOORD_0": 6
          },
          "indices": 7,
          "material": 1,
          "mode": 4
        }
      ]
    },
    {
      "name": "Object_2",
      "primitives": [
        {
          "attributes": {
            "NORMAL": 9,
            "POSITION": 8,
            "TEXCOORD_0": 10
          },
          "indices": 11,
          "material": 2,
          "mode": 4
        }
      ]
    },
    {
      "name": "Object_3",
      "primitives": [
        {
          "attributes": {
            "NORMAL": 13,
            "POSITION": 12,
            "TEXCOORD_0": 14
          },
          "indices": 15,
          "material": 3,
          "mode": 4
        }
      ]
    },
    {
      "name": "Object_4",
      "primitives": [
        {
          "attributes": {
            "NORMAL": 17,
            "POSITION": 16,
            "TEXCOORD_0": 18
          },
          "indices": 19,
          "material": 4,
          "mode": 4
        }
      ]
    },
    {
      "name": "Object_5",
      "primitives": [
        {
          "attributes": {
            "NORMAL": 21,
            "POSITION": 20,
            "TEXCOORD_0": 22
          },
          "indices": 23,
          "material": 5,
          "mode": 4
        }
      ]
    },
    {
      "name": "Object_6",
      "primitives": [
        {
          "attributes": {
            "NORMAL": 25,
            "POSITION": 24,
            "TEXCOORD_0": 26
          },
          "indices": 27,
          "material": 6,
          "mode": 4
        }
      ]
    },
    {
      "name": "Object_7",
      "primitives": [
        {
          "attributes": {
            "NORMAL": 29,
            "POSITION": 28,
            "TEXCOORD_0": 30
          },
          "indices": 31,
          "material": 7,
          "mode": 4
        }
      ]
    },
    {
      "name": "Object_8",
      "primitives": [
        {
          "attributes": {
            "NORMAL": 33,
            "POSITION": 32,
            "TEXCOORD_0": 34
          },
          "indices": 35,
          "material": 8,
          "mode": 4
        }
      ]
    }
  ],
  "nodes": [
    {
      "children": [
        1
      ],
      "matrix": [
        1.0,
        0.0,
        0.0,
        0.0,
        0.0,
        2.220446049250313e-16,
        -1.0,
        0.0,
        0.0,
        1.0,
        2.220446049250313e-16,
        0.0,
        0.0,
        0.0,
        0.0,
        1.0
      ],
      "name": "Sketchfab_model"
    },
    {
      "children": [
        2
      ],
      "name": "root"
    },
    {
      "children": [
        3,
        5,
        7,
        9,
        11,
        13,
        15,
        17,
        19
      ],
      "matrix": [
        1.0,
        0.0,
        0.0,
        0.0,
        0.0,
        2.220446049250313e-16,
        1.0,
        0.0,
        0.0,
        -1.0,
        2.220446049250313e-16,
        0.0,
        0.0,
        0.0,
        0.0,
        1.0
      ],
      "name": "GLTF_SceneRootNode"
    },
    {
      "children": [
        4
      ],
      "matrix": [
        0.05000000074505806,
        0.0,
        0.0,
        0.0,
        0.0,
        0.05000000074505806,
        0.0,
        0.0,
        0.0,
        0.0,
        0.05000000074505806,
        0.0,
        -22.467945098876953,
        10.494999885559082,
        3.608738422393799,
        1.0
      ],
      "name": "NODE_73_0"
    },
    {
      "mesh": 0,
      "name": "Object_4"
    },
    {
      "children": [
        6
      ],
      "matrix": [
        0.05000000074505806,
        0.0,
        0.0,
        0.0,
        0.0,
        0.05000000074505806,
        0.0,
        0.0,
        0.0,
        0.0,
        0.05000000074505806,
        0.0,
        1.0095560550689697,
        11.65999984741211,
        3.6087381839752197,
        1.0
      ],
      "name": "NODE_74_1"
    },
    {
      "mesh": 1,
      "name": "Object_6"
    },
    {
      "children": [
        8
      ],
      "matrix": [
        0.05000000074505806,
        0.0,
        0.0,
        0.0,
        0.0,
        0.05000000074505806,
        0.0,
        0.0,
        0.0,
        0.0,
        0.05000000074505806,
        0.0,
        11.849555969238281,
        10.164999961853027,
        3.608738422393799,
        1.0
      ],
      "name": "NODE_76_2"
    },
    {
      "mesh": 2,
      "name": "Object_8"
    },
    {
      "children": [
        10
      ],
      "matrix": [
        0.05000000074505806,
        0.0,
        0.0,
        0.0,
        0.0,
        0.05000000074505806,
        0.0,
        0.0,
        0.0,
        0.0,
        0.05000000074505806,
        0.0,
        -21.659122467041016,
        10.230000495910645,
        22.533491134643555,
        1.0
      ],
      "name": "NODE_77_3"
    },
    {
      "mesh": 3,
      "name": "Object_10"
    },
    {
      "children": [
        12
      ],
      "matrix": [
        0.05000000074505806,
        0.0,
        0.0,
        0.0,
        0.0,
        0.05000000074505806,
        0.0,
        0.0,
        0.0,
        0.0,
        0.05000000074505806,
        0.0,
        -10.094121932983398,
        10.210000038146973,
        22.533491134643555,
        1.0
      ],
      "name": "NODE_78_4"
    },
    {
      "mesh": 4,
      "name": "Object_12"
    },
    {
      "children": [
        14
      ],
      "matrix": [
        0.05000000074505806,
        0.0,
        0.0,
        0.0,
        0.0,
        0.05000000074505806,
        0.0,
        0.0,
        0.0,
        0.0,
        0.05000000074505806,
        0.0,
        1.0008777379989624,
        10.005000114440918,
        22.463294982910156,
        1.0
      ],
      "name": "NODE_80_5"
    },
    {
      "mesh": 5,
      "name": "Object_14"
    },
    {
      "children": [
        16
      ],
      "matrix": [
        0.05000000074505806,
        0.0,
        0.0,
        0.0,
        0.0,
        0.05000000074505806,
        0.0,
        0.0,
        0.0,
        0.0,
        0.05000000074505806,
        0.0,
        10.885878562927246,
        11.119999885559082,
        22.363418579101563,
        1.0
      ],
      "name": "NODE_79_6"
    },
    {
      "mesh": 6,
      "name": "Object_16"
    },
    {
      "children": [
        18
      ],
      "matrix": [
        100.0,
        0.0,
        0.0,
        0.0,
        0.0,
        100.0,
        0.0,
        0.0,
        0.0,
        0.0,
        100.0,
        0.0,
        0.0,
        0.0,
        -50.0,
        1.0
      ],
      "name": "ground_7"
    },
    {
      "mesh": 7,
      "name": "Object_18"
    },
    {
      "children": [
        20
      ],
      "matrix": [
        0.05000000074505806,
        0.0,
        0.0,
        0.0,
        0.0,
        0.05000000074505806,
        0.0,
        0.0,
        0.0,
        0.0,
        0.05000000074505806,
        0.0,
        -9.98294448852539,
        10.005000114440918,
        3.6087381839752197,
        1.0
      ],
      "name": "NODE_75_8"
    },
    {
      "mesh": 8,
      "name": "Object_20"
    }
  ],
  "samplers": [
    {
      "magFilter": 9729,
      "minFilter": 9729,
      "wrapS": 33071,
      "wrapT": 33071
    },
    {
      "magFilter": 9729,
      "minFilter": 9987,
      "wrapS": 10497,
      "wrapT": 10497
    }
  ],
  "scene": 0,
  "scenes": [
    {
      "name": "Sketchfab_Scene",
      "nodes": [
        0
      ]
    }
  ],
  "textures": [
    {
      "sampler": 0,
      "source": 0
    },
    {
      "sampler": 0,
      "source": 1
    },
    {
      "sampler": 0,
      "source": 2
    },
    {
      "sampler": 0,
      "source": 3
    },
    {
      "sampler": 0,
      "source": 4
    },
    {
      "sampler": 0,
      "source": 5
    },
    {
      "sampler": 0,
      "source": 6
    },
    {
      "sampler": 1,
      "source": 7
    },
    {
      "sampler": 0,
      "source": 8
    }
  ]
}
